<svg xmlns="http://www.w3.org/2000/svg" width="1024" height="500" viewBox="0 0 1024 500">
  <rect width="1024" height="500" fill="#FAF8F4"/>
  <circle cx="946" cy="256" r="236" fill="#F2E1D1"/>
  <g transform="translate(62 46) scale(.125)">
    <rect width="512" height="512" rx="128" fill="#0fc319"/>
    <circle cx="267" cy="300" r="139" fill="white"/>
    <rect x="128" y="78" width="84" height="245" rx="36" fill="white"/>
    <circle cx="267" cy="300" r="63" fill="#0fc319"/>
    <g fill="#0fc319"><circle cx="338" cy="187" r="26"/><circle cx="366" cy="211" r="27"/><circle cx="387" cy="242" r="25"/></g>
  </g>
  <text x="141" y="93" fill="#23231F" font-family="DejaVu Sans,sans-serif" font-weight="bold" font-size="46">bitez<tspan fill="#B44327">.</tspan></text>
  <text x="62" y="216" fill="#23231F" font-family="DejaVu Sans,sans-serif" font-weight="bold" font-size="66">Good food.</text>
  <text x="62" y="294" fill="#23231F" font-family="DejaVu Sans,sans-serif" font-weight="bold" font-size="66">Shared delivery.</text>
  <text x="65" y="347" fill="#67665E" font-family="DejaVu Sans,sans-serif" font-size="22">Food runs with your Singapore neighbours.</text>
  <rect x="62" y="394" width="545" height="46" rx="23" fill="#23231F"/>
  <text x="88" y="424" fill="#FAF8F4" font-family="DejaVu Sans,sans-serif" font-size="18">Nearby runs · Group chat · Public pickup</text>
  <g transform="translate(768 142) rotate(-13)">
    <ellipse cx="54" cy="148" rx="116" ry="17" fill="#DDC7B2"/>
    <path d="M-58 54 Q-51 151 54 151 Q155 151 166 54Z" fill="#B44327"/>
    <ellipse cx="54" cy="54" rx="112" ry="45" fill="#F5C072"/>
    <ellipse cx="54" cy="54" rx="98" ry="34" fill="#FFFFFF"/>
    <g fill="#598E3A"><ellipse cx="22" cy="43" rx="23" ry="12" transform="rotate(-20 22 43)"/><ellipse cx="69" cy="47" rx="23" ry="12" transform="rotate(24 69 47)"/><ellipse cx="41" cy="70" rx="22" ry="11"/></g>
    <g fill="#DE9056"><circle cx="5" cy="61" r="10"/><circle cx="86" cy="65" r="12"/><circle cx="52" cy="33" r="9"/></g>
    <path d="M75 19L125-102 M90 20L141-100" stroke="#654A33" stroke-width="8" stroke-linecap="round"/>
  </g>
  <g transform="translate(871 323) rotate(12)">
    <ellipse cx="5" cy="55" rx="82" ry="12" fill="#DDC7B2"/>
    <path d="M-69 0 Q-55 58 5 58 Q65 58 79 0Z" fill="#55734D"/>
    <ellipse cx="5" cy="0" rx="74" ry="26" fill="#F2F0E6"/>
    <ellipse cx="5" cy="0" rx="58" ry="17" fill="#F4CD8F"/>
    <path d="M-24-3Q0-20 28 2 M-26 7Q-2-10 25 8" stroke="#B44327" stroke-width="6" fill="none" stroke-linecap="round"/>
  </g>
</svg>
